<?xml version="1.0" encoding="utf-8"?>
<!-- Generator: Adobe Illustrator 17.1.0, SVG Export Plug-In . SVG Version: 6.00 Build 0)  -->
<!DOCTYPE svg PUBLIC "-//W3C//DTD SVG 1.1//EN" "http://www.w3.org/Graphics/SVG/1.1/DTD/svg11.dtd">
<svg version="1.1" id="Layer_1" xmlns="http://www.w3.org/2000/svg" xmlns:xlink="http://www.w3.org/1999/xlink" x="0px" y="0px"
	 viewBox="0 0 2000 1400" enable-background="new 0 0 2000 1400" xml:space="preserve">
<g color="#282f49">
	<path d="M1358.5,599.1c8-12,12-18.5,12-18.5c1.5-3-1-8-5-12c-4.5-4.5-9-5.5-10.5-3l-10.5,16c-13.5,21-41.5,61.4-82.4,110.4
		c-18,21.5-37,42-55.5,59.4c-5-7.5-11-17.5-30.5-17c-20.8-1-42,25.9-52.1,42.4c-12.1,11.3-26.8,21.7-39.8,28c-37.5,18,0-35,6.5-43
		c2.5-2,3.5-3.5,3.5-3.5c2-2,0-7.5-4-11.5c-4-4.5-9-6-11-4l-1.5,2c-27,45.5-65.4,69.9-71.4,64.9c-3.5-3-0.5-33,37.5-76.4
		c1.5-2.5,0-7.5-4-12c-2.6-2.6-5.7-4.4-8.1-4.7c-3-3.2-6.9-5.7-9.3-5.3c-0.5,0-15.5,1-44,2.5l148.4-264.8c1.5,2.5,3.5,5.5,6,7.5
		c4.5,3.5,9,3.5,9.5,0l8-49.5c0.5-3.5-3-9-7.5-12c-4-3.5-8-3.5-9-1L953.9,715.5c-15.5,0.5-33,1.5-53,2.5c-3-29-10.5-56-23-79.4
		c-14-26-32.5-48-57-65.4L887,469.7c1.5-2.5-1-8-5-12c-4.5-4-9-5.5-10.5-3l-67.9,106.9c-40.5-23-93.4-35-158.4-33
		c-111.4,4-192.3,40.5-228.8,81.4c-12.5,13.5-19.5,28.5-21.5,42.5c-2,16,3,32,16,46.5c23,26,72.4,44.5,151.4,44
		c45.5,0,87.9-0.5,127.9-1.5l-54,85.4c-1.5,2.5,0.5,7.5,5,12c4,4,9,5,10.5,3L715.1,741c65.9-1,123.4-3,170.9-5
		c-0.5,58.4-18.5,125.9-54.5,197.3c-11,19.5-21.5,39-32.5,58.4c-1.5,2.5,1,7.5,5,12c4.5,3.5,9,5,10.5,2.5c12-19.5,23-39,32.5-58.5
		l120.9-215.3c22.2-1.1,39.2-2,50.1-2.6c-10.4,12.8-21.1,28.3-27.7,43.1c-27.5,60.9,13,68.9,62.4,26.5c3,21.5,25,25.5,42.5,17
		c6.5-3.1,12.9-7.7,19-13c0,0.2,0,0.4,0,0.5c-1.5,28.5,27,26,44,15.5c12.5-8,28.5-20.5,46.5-36l0.5-1c3.5,2,6.5,1.5,7-1
		c0-0.5,0.5-2.5,0.5-6c9.5-8.5,19-18,28.5-28c-63.9,105.4-130.4,219.3-124.4,233.3c1.5,5,6.5,9.5,10.5,10.5c4,1,6-1.5,4-6.5
		C1124.2,968.3,1309.6,676,1358.5,599.1z M701.1,724c-45.5,1-95.4,1.5-148.9,2c-73.4,0-115.9-13.5-133.4-33.5
		c-6.5-7.5-9-17.5-7.5-28c1.5-12.5,8.5-26,20-39c35.5-40,114.9-75.4,224.3-79.4c58.5-2,105.4,7.5,141.4,26L701.1,724z M726.1,723.5
		l88.9-140.9c21.5,14.5,37.5,33,49,54.5c12.5,23.5,19.5,51,21.5,81.4C841.5,720,788.1,722,726.1,723.5z M893,823.9
		c7-31,10-60.9,9-88.4c15-0.5,29-1,41.5-1.5L893,823.9z M1190.2,767.5c-17.5,15.5-33.5,28-46,35.5c-5.5,3.5-10,6-13,7.5
		c1-5,4-11.5,8-18.5c8.5-14,28.5-38.5,46.5-37.5c6.5,0,9,4,10,7.5L1190.2,767.5z" fill="currentcolor"/>
	<path d="M1321.5,734l12-11.5c2-2,0-7.5-4-11.5c-3.5-4.5-8.5-6.5-10.5-4.5c0,0-5,4-11.5,11L1270,763c-2,2-12.5,11-8.5,15.5
		c4,4,10,1,12-1L1294,754c-12,22-7.5,22.5-7.5,29c2.5,11.5,1,20.5-2.5,27.5c-1.5,3.5-4.5,7-7.5,9c-3,2.5-6.5,4-10,4.5c-4,1-8,1-10,0
		c-1-0.5,6-13,6-13.5c1-2.5-1-8-5.5-12c-4.5-4-9-5-10.5-2.5c0,0.5-15.5,28.5,13,43c5.5,3,12.5,4,19.5,2.5c4-1,8-3,11.5-5.5
		c3.5-3,7-6.5,9.5-11c4-8.5,5.5-20,2.5-34.5C1297,767.5,1311,746,1321.5,734z" fill="currentcolor"/>
	<path d="M1602.7,768c2-2.5,5-3.5,0.5-7.5c-4-4.5-9.5,2-11,4c-0.5,0-54.5,47.5-70.4,37c0,0,7.5-14.5,14-27.5c3.5-7.5,7-14,8.5-19.5
		c3.5-12.5,1-22-14-26.5h-1c-11-3-40.5,19-67.4,41.5l12.5-22.5c1.5-2.5-0.5-8-5-12c-4-4-9-5-10.5-2.5l-15.1,27.1
		c-17.4,9.9-33.9,7.9-44.8,5.9c1-7.5,1-15,0-21.5s-2.5-12.5-5.5-18c-3.5-7.5-9-13.5-15.5-17c-4-2-8-3-12.5-2.5c-6,1-9,6-10,13
		c-0.5,6.5,1,15.5,5,24.5c4,9,10.5,18,19.5,25.5c-2,7-4.5,14-8,20.5c-6,11.5-12.5,20.5-19.5,26.5c-5,5-10.5,8-15,9.5c-4,1-7,1-9.5,0
		c-2.5-5-0.5-17,3.5-30c5.5-15.5,14-31,24.5-40.5c1-1,2.5-2,4-3c2-2,1-7-3-11.5c-4-4.5-9-6.5-11-5c-1.5,1-3,2.5-4.5,3.5
		c-11,10-20.5,26.5-26,43c-5.5,17.5-6,36,2,47.5c1,1,2,2,3,3c3,3.5,6.5,6,10,8c6.5,3.5,13,4,19.5,2c5.5-1.5,11-5.5,17-10.5
		c7.5-6.5,14.5-16.5,20.5-28c4.5-7.5,7.5-16.5,9.5-25c10.6,3.8,22.1,4,35.9-0.4l-18.9,33.8c-1.5,2.5,1,7.5,5,12c4,3.5,8.5,5,10,3
		c2-2,68.4-65.4,96.9-80.4c-1.5,4-3.5,8-5.5,12c-9.5,19.5-20.5,41.5,2,56C1548.2,832.4,1602.7,768,1602.7,768z M1382.4,757.5
		c-3.5-3-6-6.5-7.5-10.5c-2.5-5.5-3.5-11-3-15.5c0.5-4.5,2-7.5,5-7.5c1.5-0.5,3-0.5,3.5,0c0,0-0.3,0-0.5,0c1,2.5,2,6.5,2.5,11
		C1383.4,741.5,1383.4,749.5,1382.4,757.5z" fill="currentcolor"/>
	<polygon points="975.3,902.1 980,887.7 984.8,902.1 990.5,917.2 996.5,917.2 1011.8,874.2 1004.2,874.2 993.5,907.3 982.2,874.2
		977.8,874.2 966.7,907.3 955.8,874.2 948.1,874.2 963.7,917.2 969.7,917.2 	" fill="currentcolor"/>
	<path d="M1127.4,911.3c1.7-2.1,3.1-4.4,4-7.1c0.9-2.6,1.4-5.4,1.4-8.4c0-6.2-1.9-11.5-5.7-15.8c-3.8-4.4-9.2-6.5-16.1-6.6
		c-6.5,0-11.7,2.1-15.9,6.3s-6.2,9.6-6.2,16.1c0,2.9,0.5,5.6,1.4,8.2c0.9,2.6,2.2,4.9,4,7c1.7,2.1,4,3.7,6.9,5
		c2.9,1.2,6.1,1.9,9.7,1.9c3.6,0,6.8-0.6,9.7-1.8C1123.3,915,1125.6,913.4,1127.4,911.3z M1104,910.4c-2-0.9-3.6-2.1-4.7-3.7
		c-1.2-1.5-2.1-3.2-2.7-5c-0.6-1.8-0.9-3.7-0.9-5.7c0-4.8,1.3-8.7,4-11.8c2.7-3,6.4-4.5,11.2-4.5c3.3,0,6.1,0.9,8.5,2.5
		c2.3,1.7,4,3.7,5,6c1,2.4,1.5,4.9,1.5,7.7c0,4.5-1.3,8.2-3.8,11.2c-2.5,3-6.3,4.5-11.3,4.5C1108.3,911.7,1106,911.3,1104,910.4z" fill="currentcolor"/>
	<path d="M1238.7,901.6c4-0.6,6.9-2.1,8.8-4.6c1.9-2.5,2.8-5.4,2.8-8.8c0-3.8-1.3-7.1-4-9.9c-2.7-2.8-6.4-4.1-11.1-4.1
		c-2.2,0-5.5,0-10,0c-4.5,0-7.8,0-10,0v43h6.9v-14.8h9.1l13.1,14.8h8l-0.7-1.2L1238.7,901.6z M1222.1,896.1v-15.6h13.1
		c2.7,0,4.7,0.8,6.1,2.4c1.4,1.6,2.1,3.4,2.1,5.5c0,2.2-0.7,4-2.1,5.5c-1.4,1.5-3.4,2.2-6.1,2.2H1222.1z" fill="currentcolor"/>
	<path d="M1366.3,880.8c-1.7-2-3.9-3.6-6.7-4.8c-2.8-1.2-6-1.8-9.5-1.8h-16.2v42.9h16.2c3.6,0,6.8-0.6,9.7-1.9
		c2.9-1.2,5.1-2.9,6.8-5s3-4.4,3.8-7s1.2-5.2,1.2-8c0-2.7-0.5-5.3-1.4-7.8C1369.3,885.1,1368,882.9,1366.3,880.8z M1361.2,906
		c-2.5,3-6.2,4.5-11.1,4.5h-9.4v-29.7h9.4c3.2,0,6,0.7,8.2,2.1c2.3,1.4,3.9,3.2,4.9,5.3c1,2.1,1.5,4.5,1.6,7
		C1364.9,899.4,1363.7,903,1361.2,906z" fill="currentcolor"/>
	<polygon points="1461,898.9 1484.7,898.9 1484.7,892.5 1461,892.5 1461,880.9 1485.7,880.9 1485.7,874.2 1454.2,874.2
		1454.2,917.1 1485.9,917.1 1485.9,910.4 1461,910.4 	" fill="currentcolor"/>
	<polygon points="1598.7,874.2 1598.7,904.8 1574.3,874.2 1569.1,874.2 1569.1,917.1 1576,917.1 1576,886.9 1600.3,917.1
		1605.5,917.1 1605.5,874.2 	" fill="currentcolor"/>
	<polygon points="1018.3,1031.2 369.3,1031.2 369.3,368.8 1018.3,368.8 1018.3,565.7 1035.3,535.3 1035.3,351.8 352.3,351.8
		352.3,1048.2 1035.3,1048.2 1035.3,937.5 1018.3,937.4 	" fill="currentcolor"/>
</g>
</svg>
